<svg width="223" height="223" viewBox="0 0 223 223" fill="none" xmlns="http://www.w3.org/2000/svg">
<g clip-path="url(#clip0_10_3856)">
<circle cx="111.5" cy="111.5" r="111.5" fill="url(#paint0_linear_10_3856)"/>
<path d="M190.662 144.784H203L174.63 74.0122H161.475L137.409 134.03L134.349 129.651C134.934 128.581 135.434 127.425 135.824 126.172C136.543 123.885 136.909 121.44 136.909 118.837V99.8611H127.046V118.837C127.046 118.947 127.046 119.056 127.046 119.178L102.236 83.6584H128.399V74.0122H89.2392V82.9407L101.455 100.469C98.7853 101.418 96.3714 102.61 94.2256 104.058C93.5673 104.508 92.9333 104.982 92.3359 105.469C91.836 100.372 90.3365 95.6523 87.8494 91.334C84.7283 85.9331 80.4124 81.6878 74.9018 78.6102C69.3789 75.5327 63.2709 74 56.5532 74H29V144.771H56.5532C63.2709 144.771 69.3789 143.239 74.9018 140.161C79.0226 137.862 82.485 134.906 85.2647 131.306C85.7402 132.619 86.3498 133.884 87.0813 135.077C89.2026 138.531 92.1652 141.219 95.969 143.129C99.7728 145.039 104.077 146 108.868 146C113.318 146 117.244 145.088 120.633 143.287C123.254 141.888 125.424 139.918 127.168 137.4L132.3 144.771H145.15L151.319 128.873H184.53L190.699 144.771L190.662 144.784ZM77.7912 122.073C75.5967 125.868 72.6341 128.861 68.9034 131.05C65.1728 133.24 60.9666 134.335 56.3094 134.335H40.0701V84.4856H56.3094C60.9666 84.4856 65.1606 85.5803 68.9034 87.7699C72.6341 89.9595 75.5967 92.9518 77.7912 96.7471C79.9857 100.542 81.083 104.763 81.083 109.41C81.083 114.057 79.9857 118.278 77.7912 122.073ZM118.146 133.97C115.439 135.502 112.44 136.281 109.148 136.281C106.332 136.281 103.82 135.697 101.589 134.541C99.3583 133.374 97.6149 131.804 96.347 129.822C95.079 127.839 94.4451 125.552 94.4451 122.949C94.4451 120.212 95.1522 117.755 96.5542 115.565C97.9563 113.376 99.907 111.514 102.418 109.97C103.699 109.179 105.113 108.51 106.637 107.962L122.413 130.612C121.181 131.926 119.767 133.045 118.146 133.97ZM155.269 118.631L167.9 86.0791L180.531 118.631H155.282H155.269Z" fill="white"/>
</g>
<defs>
<linearGradient id="paint0_linear_10_3856" x1="91" y1="15" x2="192.921" y2="189.809" gradientUnits="userSpaceOnUse">
<stop stop-color="#2F0E3F"/>
<stop offset="1" stop-color="#002AFF"/>
</linearGradient>
<clipPath id="clip0_10_3856">
<rect width="223" height="223" fill="white"/>
</clipPath>
</defs>
</svg>
